<?xml version="1.0" standalone="no"?>
<!DOCTYPE svg PUBLIC "-//W3C//DTD SVG 20010904//EN"
 "http://www.w3.org/TR/2001/REC-SVG-20010904/DTD/svg10.dtd">
<svg version="1.0" xmlns="http://www.w3.org/2000/svg"
 width="2492.000000pt" height="2600.000000pt" viewBox="0 0 2492.000000 2600.000000"
 preserveAspectRatio="xMidYMid meet">

<g transform="translate(0.000000,2600.000000) scale(0.100000,-0.100000)"
fill="#000000" stroke="none">
<path d="M12269 22251 c-40 -13 -70 -31 -138 -83 -45 -36 -69 -48 -85 -45 -11
3 -50 13 -86 22 -93 24 -212 15 -377 -30 -207 -55 -399 -121 -503 -172 -197
-98 -352 -301 -464 -608 -20 -55 -43 -113 -51 -130 -29 -60 -57 -255 -62 -431
l-5 -170 -42 -27 c-43 -27 -112 -91 -158 -146 -25 -30 -25 -32 -7 -41 10 -6
78 -15 151 -22 131 -11 134 -12 207 -56 81 -48 163 -87 279 -132 40 -16 103
-47 140 -71 37 -23 113 -68 168 -99 l102 -56 -85 -145 c-107 -183 -257 -483
-283 -567 -19 -59 -20 -93 -20 -452 l0 -388 -52 -12 c-72 -17 -108 -37 -108
-59 0 -23 30 -61 116 -151 l62 -65 11 -190 c15 -265 14 -370 -4 -404 -8 -16
-94 -95 -191 -176 l-178 -148 -40 44 c-34 37 -140 109 -161 109 -4 0 -5 -77
-4 -170 l2 -170 -225 -219 c-262 -255 -281 -268 -460 -306 -42 -8 -34 -23 17
-31 54 -8 189 17 243 45 20 11 76 48 123 83 195 142 293 211 479 338 353 240
599 439 682 548 74 98 82 138 75 377 -4 110 -14 301 -22 425 -25 384 -30 699
-11 811 27 168 137 499 226 684 26 55 63 146 81 203 28 85 38 104 57 109 34 8
18 18 -86 48 -223 64 -578 225 -685 310 -72 57 -118 120 -148 204 -35 98 -33
265 5 411 72 276 189 507 312 619 68 63 156 106 339 165 345 114 476 129 584
70 89 -48 126 -106 265 -416 35 -79 78 -180 96 -226 34 -89 67 -122 121 -122
15 0 91 31 170 69 79 38 239 104 354 146 237 86 285 96 609 116 234 14 280 10
371 -35 132 -65 501 -378 559 -475 125 -206 166 -356 280 -1031 68 -406 81
-542 64 -711 -7 -68 -10 -176 -8 -239 3 -63 5 -252 4 -420 l-1 -305 -83 -170
c-102 -211 -166 -352 -236 -519 -30 -71 -64 -145 -76 -164 -58 -95 -525 -434
-760 -552 -113 -56 -185 -114 -156 -125 9 -4 31 1 49 11 23 11 34 13 37 5 6
-17 33 -13 77 9 22 11 47 20 57 20 35 0 182 60 315 129 74 39 141 71 147 71 6
0 29 -25 51 -56 49 -69 138 -154 161 -154 14 0 16 8 10 61 -7 55 -35 182 -51
220 -5 12 23 29 131 77 130 59 137 61 164 47 72 -37 324 -209 390 -267 41 -34
71 -55 67 -44 -5 14 -4 17 8 12 8 -3 15 -3 15 1 0 20 -104 138 -241 274 -86
86 -165 171 -174 189 -30 58 -30 141 0 285 54 258 66 331 64 400 -2 73 30 199
131 510 50 156 51 156 64 152 6 -2 16 2 21 9 13 15 323 184 525 285 268 134
352 161 443 140 151 -33 346 -168 567 -391 267 -269 524 -599 581 -747 32 -83
31 -179 -2 -259 -46 -111 -117 -203 -278 -364 -222 -222 -431 -375 -692 -506
-180 -90 -202 -96 -349 -89 -69 3 -179 11 -244 17 l-119 12 -110 84 c-60 46
-108 80 -106 76 2 -5 45 -70 95 -144 88 -132 178 -278 242 -392 26 -47 29 -58
17 -68 -27 -23 -95 -137 -115 -194 l-20 -59 37 6 c20 4 77 31 127 61 67 40 94
51 104 44 56 -47 319 -573 517 -1038 259 -606 313 -784 322 -1071 8 -224 -22
-445 -123 -929 -153 -730 -288 -1126 -479 -1414 -130 -196 -316 -392 -872
-924 -710 -679 -792 -794 -837 -1172 -27 -228 -56 -675 -56 -877 0 -77 -3 -93
-15 -93 -9 0 -57 4 -108 10 -431 46 -1448 97 -2127 107 -695 9 -1084 -15
-1500 -94 -74 -14 -147 -28 -161 -30 l-26 -5 -7 106 c-7 106 -101 776 -131
932 -38 200 -100 378 -194 559 -167 322 -376 560 -752 856 -657 518 -733 623
-924 1289 -185 644 -241 959 -201 1120 39 158 285 568 521 870 155 197 251
356 300 495 13 37 34 66 84 112 36 35 72 63 79 63 13 0 17 47 6 75 -6 14 -12
12 -39 -15 -18 -17 -39 -32 -46 -34 -8 -1 -24 -7 -36 -14 -12 -7 -40 -12 -62
-12 -37 0 -41 -3 -41 -24 0 -18 -23 -45 -92 -104 -51 -44 -109 -97 -128 -117
-76 -82 -634 -515 -695 -540 -44 -19 -162 -1 -431 65 -575 140 -827 229 -880
310 -41 62 -120 410 -198 872 -54 321 -69 470 -63 648 5 177 19 235 93 382 82
164 191 311 382 519 l115 126 246 6 246 6 240 -44 c262 -48 419 -70 592 -84
l113 -9 174 -132 175 -132 -20 -31 c-41 -69 -17 -115 74 -142 58 -17 102 -9
113 20 5 11 26 -4 85 -59 100 -95 198 -146 275 -146 30 0 54 3 54 8 0 4 -24
20 -53 36 -28 16 -93 60 -144 98 -69 52 -101 84 -128 127 -19 32 -35 65 -35
72 0 8 14 52 30 99 30 85 37 134 22 144 -19 11 -82 -16 -124 -54 l-45 -39 -97
110 c-67 76 -91 109 -79 109 11 1 5 7 -14 15 -18 8 -33 21 -33 29 0 9 -19 35
-42 59 -35 35 -59 49 -126 70 -68 23 -294 67 -526 104 l-49 8 -24 90 c-35 130
-69 171 -84 99 -3 -16 -19 -56 -35 -89 -33 -68 -28 -66 -154 -46 -41 7 -181
15 -312 18 l-236 6 -64 -30 c-59 -28 -240 -163 -282 -211 -25 -29 -36 -28 -82
9 -65 53 -127 89 -151 89 -23 0 -23 -2 -23 -102 0 -57 5 -131 10 -166 l11 -63
-82 -92 c-161 -182 -308 -394 -349 -504 -48 -128 -48 -331 0 -653 20 -133 75
-426 86 -455 4 -8 0 -17 -7 -20 -99 -34 -137 -53 -175 -86 -25 -21 -49 -39
-55 -39 -5 0 -9 -5 -9 -11 0 -6 71 -44 158 -86 86 -41 158 -76 159 -77 1 -1
16 -69 33 -152 37 -180 72 -300 111 -375 77 -154 244 -252 611 -360 l147 -43
2 -101 c1 -55 1 -119 0 -142 -2 -74 39 -49 140 83 40 52 78 94 85 94 7 0 77
-16 156 -35 179 -44 347 -75 410 -75 26 0 48 -2 48 -5 0 -3 -23 -44 -51 -92
-70 -121 -173 -335 -198 -410 -30 -90 -27 -169 10 -294 33 -112 126 -353 166
-433 l25 -50 -33 -29 c-129 -110 -268 -240 -264 -247 3 -5 -8 -11 -24 -15 -16
-3 -35 -12 -40 -19 -18 -21 31 -26 274 -26 l223 0 7 -37 c14 -79 126 -399 175
-501 124 -259 309 -476 614 -717 l38 -31 -25 -74 c-68 -205 -56 -220 92 -114
l92 66 97 -79 c417 -339 602 -621 818 -1249 l49 -141 -99 -96 c-121 -118 -120
-138 9 -98 33 10 79 22 102 26 l42 7 35 -109 c19 -59 40 -139 47 -178 13 -75
7 -251 -9 -267 -6 -6 -52 -17 -104 -24 -118 -18 -261 -58 -315 -90 -116 -68
-133 -180 -114 -759 17 -500 28 -598 73 -665 36 -52 86 -73 177 -72 l78 0 6
-181 c15 -420 141 -1257 272 -1802 102 -427 170 -524 408 -584 328 -84 1235
-137 2175 -128 516 6 703 15 882 43 52 8 159 21 238 29 160 17 242 40 320 91
52 34 66 54 36 54 -11 0 -3 14 24 45 85 97 204 392 272 680 86 357 165 953
225 1687 6 68 9 78 28 84 55 16 89 40 131 90 l44 54 6 112 c22 445 27 652 17
774 -18 229 -50 341 -112 386 -14 11 -55 23 -90 28 -70 10 -368 76 -376 84 -3
3 2 67 11 143 9 76 27 251 41 389 28 275 51 463 58 470 3 3 31 -2 63 -11 75
-20 274 -33 274 -17 0 7 7 9 17 5 12 -5 7 7 -16 35 -35 45 -120 110 -213 162
-32 17 -60 35 -62 39 -3 3 21 44 52 90 77 117 255 296 697 706 524 486 780
750 889 918 35 53 30 51 186 66 63 5 136 17 162 26 l47 17 -105 54 c-58 30
-112 54 -119 54 -27 0 -24 20 15 106 96 207 203 540 280 867 31 130 34 138 54
133 47 -14 153 -19 160 -7 8 13 -17 52 -86 132 -26 31 -48 65 -48 75 0 11 18
109 39 219 147 746 121 1026 -153 1694 -42 102 -76 190 -76 197 0 7 17 26 38
43 37 31 142 150 142 161 0 3 -9 6 -19 6 -11 0 -18 -3 -15 -7 2 -4 -3 -10 -12
-13 -23 -9 -24 -8 -17 11 6 15 -4 16 -103 10 l-109 -6 -44 102 c-164 379 -323
647 -520 875 l-53 62 40 0 c98 0 278 57 318 101 9 11 21 19 27 19 5 0 35 -22
66 -48 72 -62 121 -95 195 -127 l59 -26 -5 48 c-3 26 -23 90 -46 141 -23 50
-42 95 -42 100 0 4 39 30 87 57 244 141 582 439 741 653 86 117 149 247 171
356 l18 89 74 36 c70 33 209 127 209 141 0 3 -19 18 -41 32 -38 25 -133 51
-268 75 -42 8 -47 12 -87 81 -105 177 -336 453 -575 687 -262 256 -475 400
-669 450 -64 17 -222 17 -276 0 -19 -6 -25 4 -64 104 -24 61 -47 111 -52 111
-4 0 -8 10 -8 23 -1 41 -86 -147 -116 -256 l-29 -106 -85 -47 c-118 -66 -220
-127 -324 -196 -77 -52 -88 -56 -83 -36 51 203 57 511 14 783 -56 366 -77 508
-102 718 -14 120 -28 231 -31 246 -5 26 2 35 83 101 48 40 105 90 125 111 l36
38 -31 -6 c-30 -5 -29 -3 21 32 29 21 51 39 49 41 -2 2 -28 -1 -58 -7 -29 -5
-110 -15 -177 -20 l-124 -11 -15 23 c-9 13 -48 56 -88 94 -39 39 -94 99 -121
135 -75 99 -156 175 -262 246 -54 36 -146 103 -207 150 -60 47 -151 106 -201
131 l-91 47 -16 111 c-9 61 -21 124 -27 139 -10 28 -11 28 -26 10 -14 -18 -15
-17 -11 16 l4 34 -46 -50 c-25 -28 -70 -95 -98 -151 l-53 -100 -82 -7 c-246
-21 -602 -148 -912 -324 -60 -34 -110 -61 -112 -60 -1 2 -36 83 -78 181 -92
215 -137 306 -184 371 l-35 50 27 81 c14 45 26 90 26 101 0 10 9 34 20 52 21
34 17 37 -31 23z m-87 -158 c-5 -10 -11 -23 -13 -30 -3 -8 -9 -9 -19 -3 -12 7
-12 12 4 29 23 26 40 28 28 4z m-5642 -4833 c0 -5 -2 -10 -4 -10 -3 0 -8 5
-11 10 -3 6 -1 10 4 10 6 0 11 -4 11 -10z m2255 -520 c3 -5 -1 -10 -10 -10 -9
0 -13 5 -10 10 3 6 8 10 10 10 2 0 7 -4 10 -10z m7669 -236 c3 -8 2 -12 -4 -9
-6 3 -10 10 -10 16 0 14 7 11 14 -7z m-3794 -8003 c422 -21 770 -42 1110 -67
203 -15 405 -24 492 -22 l146 2 106 -52 c163 -81 167 -94 188 -522 16 -344 17
-495 1 -511 -14 -14 -233 -56 -488 -94 -93 -14 -192 -30 -220 -35 -128 -24
-310 -31 -547 -20 -131 6 -248 8 -259 5 -35 -11 -17 -39 37 -57 97 -32 312
-49 684 -55 195 -2 411 0 480 5 69 4 126 8 128 6 4 -2 -42 -392 -93 -789 -88
-683 -179 -1092 -293 -1309 -54 -103 -84 -130 -172 -156 -41 -12 -142 -43
-225 -70 -225 -72 -264 -74 -1145 -67 -884 8 -1261 24 -1690 73 -275 31 -349
52 -382 109 -93 163 -352 1498 -404 2076 l-7 77 56 21 c145 54 241 69 477 75
124 4 365 11 535 16 171 6 524 15 785 21 261 6 498 13 525 17 45 7 32 10 -125
30 -442 56 -1214 116 -1660 127 -219 6 -253 9 -490 51 -301 53 -403 73 -421
85 -11 6 -14 49 -14 201 0 185 18 553 33 667 l7 55 56 21 c37 15 91 24 165 29
60 4 241 18 403 32 162 14 365 29 450 34 203 11 1493 4 1771 -9z"/>
<path d="M11617 20693 c-4 -3 -7 -27 -7 -53 0 -113 124 -160 199 -74 43 48 41
65 -4 51 -49 -15 -105 4 -144 48 -33 38 -34 39 -44 28z"/>
<path d="M14483 20349 c-18 -5 -33 -11 -33 -13 0 -1 7 -17 16 -35 23 -45 11
-97 -31 -137 -31 -29 -33 -33 -19 -53 36 -51 124 -66 182 -31 50 31 74 76 69
133 -8 98 -95 162 -184 136z"/>
<path d="M12736 18826 c-92 -96 -58 -219 67 -244 100 -20 173 23 184 109 6 43
5 43 -13 27 -10 -9 -38 -21 -62 -28 -51 -13 -88 1 -111 42 -14 24 -14 32 1 77
l16 51 -25 0 c-16 0 -38 -13 -57 -34z"/>
<path d="M15873 17670 c-59 -36 -83 -122 -49 -175 42 -64 146 -101 203 -72 54
28 57 41 16 68 -21 13 -48 40 -61 59 -20 29 -23 43 -19 88 l6 52 -32 0 c-18 0
-46 -9 -64 -20z"/>
<path d="M12425 16713 c-64 -17 -114 -99 -101 -167 7 -36 36 -72 36 -43 0 8
18 31 40 51 34 30 47 36 86 36 56 0 79 -12 104 -53 l20 -32 0 53 c0 62 -18
102 -58 131 -31 21 -93 33 -127 24z"/>
<path d="M7187 15389 c-41 -58 -6 -147 73 -186 56 -29 104 -29 154 0 55 31 78
67 84 128 l5 53 -32 -36 c-74 -85 -199 -70 -250 29 l-18 36 -16 -24z"/>
<path d="M14654 15127 c-31 -28 -37 -41 -42 -85 -4 -50 -3 -54 34 -91 51 -51
104 -61 168 -32 46 20 86 68 86 104 0 14 -9 17 -46 17 -60 0 -108 29 -130 81
-10 21 -22 39 -26 39 -5 0 -25 -15 -44 -33z"/>
<path d="M10305 15081 c-43 -26 -68 -68 -69 -116 -1 -54 25 -92 81 -117 58
-25 100 -18 140 25 45 48 47 62 9 79 -24 12 -41 33 -65 82 -35 72 -47 78 -96
47z"/>
<path d="M12060 13962 c0 -58 18 -78 95 -107 40 -16 45 -16 80 1 40 19 55 46
55 101 0 30 -3 34 -17 28 -10 -4 -41 -10 -68 -12 -46 -5 -76 3 -137 35 -5 2
-8 -19 -8 -46z"/>
<path d="M10077 13478 c-37 -75 -107 -273 -107 -302 0 -9 -3 -16 -6 -16 -4 0
-41 33 -83 73 -104 99 -230 206 -264 223 -28 15 -67 11 -67 -7 0 -20 89 -199
127 -255 43 -62 136 -180 179 -226 34 -38 90 -38 133 -2 25 20 34 23 50 14 12
-6 31 -8 44 -5 12 3 36 -1 52 -9 44 -23 74 -20 144 15 76 38 140 100 209 202
49 74 69 118 40 89 -20 -20 -32 -13 -13 8 16 18 13 18 -45 -5 -71 -28 -112
-51 -225 -129 -81 -55 -104 -63 -69 -25 17 18 19 37 19 148 0 69 -6 152 -14
184 -12 54 -38 97 -60 97 -5 0 -25 -33 -44 -72z"/>
<path d="M14427 13478 c-37 -75 -107 -273 -107 -302 0 -9 -3 -16 -6 -16 -4 0
-41 33 -83 73 -104 99 -230 206 -264 223 -28 15 -67 11 -67 -7 0 -20 89 -199
127 -255 43 -62 136 -180 179 -226 34 -38 90 -38 133 -2 25 20 34 23 50 14 12
-6 31 -8 44 -5 12 3 36 -1 52 -9 44 -23 74 -20 144 15 76 38 140 100 209 202
49 74 69 118 40 89 -20 -20 -32 -13 -13 8 16 18 13 18 -45 -5 -71 -28 -112
-51 -225 -129 -81 -55 -104 -63 -69 -25 17 18 19 37 19 148 0 69 -6 152 -14
184 -12 54 -38 97 -60 97 -5 0 -25 -33 -44 -72z"/>
<path d="M16180 13348 c0 -62 -78 -131 -142 -126 -34 3 -37 1 -32 -17 11 -31
35 -65 57 -77 67 -36 129 -26 176 27 39 45 47 89 26 142 -24 61 -85 97 -85 51z"/>
<path d="M8230 13156 c0 -78 0 -79 39 -117 35 -35 44 -39 88 -39 55 0 101 24
137 73 16 21 21 43 21 87 0 32 -3 62 -7 66 -4 4 -17 -5 -29 -20 -60 -76 -184
-75 -232 3 -16 25 -16 24 -17 -53z"/>
<path d="M10160 11979 c-51 -31 -89 -69 -113 -114 -19 -35 -22 -56 -22 -160 0
-114 1 -123 30 -174 56 -101 144 -147 264 -139 111 8 199 67 248 166 24 49 28
69 28 142 0 77 -3 90 -31 140 -35 63 -102 118 -172 143 -69 25 -187 23 -232
-4z"/>
<path d="M14107 11956 c-118 -43 -191 -189 -156 -313 26 -96 114 -153 256
-168 158 -17 293 91 293 236 0 97 -89 206 -199 244 -54 18 -143 19 -194 1z"/>
<path d="M13475 11409 c-422 -185 -451 -197 -579 -238 -139 -44 -326 -84 -478
-100 -142 -16 -413 -14 -534 4 -282 42 -594 166 -800 318 -129 94 -192 117
-228 81 -40 -40 -1 -119 113 -226 189 -179 528 -337 857 -400 105 -20 149 -23
379 -23 238 1 273 3 417 28 330 58 667 180 881 320 134 87 257 226 257 289 0
19 -26 48 -43 48 -7 -1 -115 -46 -242 -101z"/>
</g>
</svg>
