<svg xmlns="http://www.w3.org/2000/svg" xmlns:xlink="http://www.w3.org/1999/xlink" version="1.1" x="0px" y="0px" viewBox="0 0 100 125" style="enable-background:new 0 0 100 100;" xml:space="preserve"><path d="M50.9,2.5C30.4,2,13.7,18.5,13.7,38.8c0,25.1,19,44.3,30.2,56c3.4,3.5,9,3.5,12.4,0C66.6,84,83.8,66.6,86.1,44  C88.3,22.6,72.5,3,50.9,2.5z M50,52.3c-7.4,0-13.5-6-13.5-13.5c0-7.4,6-13.5,13.5-13.5c7.4,0,13.5,6,13.5,13.5  C63.5,46.3,57.5,52.3,50,52.3z" fill="green"/><text x="0" y="115" fill="#000000" font-size="5px" font-weight="bold" font-family="'Helvetica Neue', Helvetica, Arial-Unicode, Arial, Sans-serif"></text><text x="0" y="120" fill="#000000" font-size="5px" font-weight="bold" font-family="'Helvetica Neue', Helvetica, Arial-Unicode, Arial, Sans-serif"></text></svg>
