<svg xmlns="http://www.w3.org/2000/svg" data-name="Layer 1" viewBox="0 0 100 125" x="0px" y="0px"><defs><style>
      .cls-1 {
        stroke-width: 0px;
      }
    </style></defs><path class="cls-1" d="m29,81h16c1.65,0,3-1.35,3-3s-1.35-3-3-3h-16c-1.65,0-3-1.35-3-3v-1.23c0-1.99.4-3.93,1.2-5.75.96-2.21,2.48-4.17,4.39-5.66,3.02-2.35,6.18-4.17,9.4-5.42,1.04-.4,1.77-1.34,1.9-2.45.13-1.11-.36-2.19-1.27-2.82-3.51-2.43-5.61-6.42-5.61-10.68,0-7.17,5.83-13,13-13,.17,0,.34,0,.51.01,6.7.26,12.18,5.71,12.47,12.41.12,2.85-.65,5.57-2.23,7.89-.45.66-.62,1.46-.47,2.25.15.79.59,1.47,1.25,1.92.66.45,1.46.62,2.25.47.79-.15,1.47-.59,1.92-1.25,2.32-3.39,3.45-7.38,3.27-11.54-.43-9.8-8.44-17.77-18.24-18.14-.25,0-.49-.01-.74-.01-10.48,0-19,8.52-19,19,0,4.09,1.35,8.14,3.81,11.41l.68.91-.99.56c-1.91,1.08-3.79,2.34-5.61,3.75-2.7,2.1-4.85,4.87-6.21,8-1.12,2.59-1.69,5.33-1.69,8.14v1.23c0,4.96,4.04,9,9,9Z"/><circle class="cls-1" cx="57" cy="63" r="3"/><circle class="cls-1" cx="77" cy="63" r="3"/><path class="cls-1" d="m63.46,79.46c.97-.97,2.26-1.46,3.54-1.46s2.56.49,3.54,1.46c1.13,1.13,3.11,1.13,4.24,0,1.17-1.17,1.17-3.07,0-4.24-4.29-4.29-11.27-4.29-15.56,0-1.17,1.17-1.17,3.07,0,4.24,1.17,1.17,3.07,1.17,4.24,0Z"/><text x="0" y="115" fill="#000000" font-size="5px" font-weight="bold" font-family="'Helvetica Neue', Helvetica, Arial-Unicode, Arial, Sans-serif">Created by Gregor Cresnar</text><text x="0" y="120" fill="#000000" font-size="5px" font-weight="bold" font-family="'Helvetica Neue', Helvetica, Arial-Unicode, Arial, Sans-serif">from the Noun Project</text></svg>